<svg width="400" height="280" viewBox="0 0 400 280" xmlns="http://www.w3.org/2000/svg">
<defs>
<linearGradient id="tg1" x1="0%" y1="0%" x2="100%" y2="100%">
<stop offset="0%" stop-color="#2DD4BF"/>
<stop offset="100%" stop-color="#14B8A6"/>
</linearGradient>
</defs>
<g transform="translate(115, 10) scale(0.85)">
<path d="M 80 0 Q 140 -5, 160 20 Q 180 45, 150 65 Q 130 80, 90 80" fill="url(#tg1)"/>
<path d="M 90 80 Q 40 80, 20 105 Q 0 130, 30 155 Q 50 170, 90 170" fill="url(#tg1)"/>
<path d="M 60 60 L 60 170 L 90 170 L 90 80 Q 130 80, 150 65 Q 170 50, 155 30 L 130 30 Q 140 45, 125 58 Q 110 68, 90 68 L 90 60 Z" fill="url(#tg1)" opacity="0.9"/>
<rect x="90" y="55" width="28" height="150" rx="4" fill="#14B8A6"/>
<path d="M 90 55 L 200 55 L 200 78 L 118 78 L 118 55 Z" fill="url(#tg1)"/>
<path d="M 118 110 L 180 110 L 180 130 L 118 130 Z" fill="#14B8A6" opacity="0.95"/>
<rect x="205" y="60" width="35" height="4" rx="2" fill="#F59E0B" opacity="0.7"/>
<rect x="210" y="70" width="25" height="3" rx="1.5" fill="#F59E0B" opacity="0.4"/>
<rect x="185" y="115" width="22" height="3" rx="1.5" fill="#14B8A6" opacity="0.5"/>
<circle cx="35" cy="140" r="8" fill="#F59E0B" opacity="0.9"/>
<circle cx="35" cy="137" r="3" fill="white" opacity="0.5"/>
</g>
<text x="200" y="210" text-anchor="middle" font-family="'Inter', 'Segoe UI', system-ui, -apple-system, sans-serif" font-size="38" font-weight="700" letter-spacing="-0.5">
<tspan fill="#0F172A">StopFor</tspan><tspan fill="#14B8A6">Fuel</tspan>
</text>
<text x="200" y="237" text-anchor="middle" font-family="'Inter', 'Segoe UI', system-ui, -apple-system, sans-serif" font-size="11" font-weight="400" letter-spacing="4" fill="#64748B">FUEL STATION MANAGEMENT</text>
</svg>
