<svg width="48" height="64" viewBox="0 0 48 64" fill="none" xmlns="http://www.w3.org/2000/svg">
  <!-- StopForFuel Shield Icon - For Light Backgrounds -->
  <defs>
    <linearGradient id="shield" x1="24" y1="0" x2="24" y2="64" gradientUnits="userSpaceOnUse">
      <stop stop-color="#FFB300"/>
      <stop offset="1" stop-color="#E65100"/>
    </linearGradient>
  </defs>
  <path d="M24 2 L2 16 L2 40 C2 56 11 63 24 68 C37 63 46 56 46 40 L46 16 Z" fill="url(#shield)"/>
  <path d="M24 22 C24 22 15 35 15 41 C15 47 19 51 24 51 C29 51 33 47 33 41 C33 35 24 22 24 22Z" fill="white"/>
  <path d="M24 38 C24 38 21.5 42 21.5 43.5 C21.5 45 22.6 46 24 46 C25.4 46 26.5 45 26.5 43.5 C26.5 42 24 38 24 38Z" fill="url(#shield)" opacity="0.55"/>
</svg>
