<svg width="48" height="64" viewBox="0 0 48 68" fill="none" xmlns="http://www.w3.org/2000/svg">
  <defs>
    <linearGradient id="shield" x1="24" y1="2" x2="24" y2="66" gradientUnits="userSpaceOnUse">
      <stop stop-color="#FFCA28"/>
      <stop offset="1" stop-color="#FFB300"/>
    </linearGradient>
  </defs>
  <path d="M24 2 L2 16 L2 40 C2 56 11 63 24 68 C37 63 46 56 46 40 L46 16 Z" fill="url(#shield)"/>
  <path d="M24 22 C24 22 15 35 15 41 C15 47 19 51 24 51 C29 51 33 47 33 41 C33 35 24 22 24 22Z" fill="#0D1117"/>
  <path d="M24 37 C24 37 22 40 22 41 C22 42.1 22.9 43 24 43 C25.1 43 26 42.1 26 41 C26 40 24 37 24 37Z" fill="url(#shield)" opacity="0.5"/>
</svg>
